<svg width="697" height="283" viewBox="0 0 697 283" fill="none" xmlns="http://www.w3.org/2000/svg">
<rect y="100" width="527" height="28" rx="14" fill="#F7B639"/>
<path d="M9.80853 23.158H33.2341L57.9758 83.5206H59.0286L83.7703 23.158H107.196V113H88.7712V54.5237H88.0255L64.7753 112.561H52.2291L28.9789 54.3044H28.2332V113H9.80853V23.158ZM134.032 138.268C131.663 138.268 129.441 138.078 127.364 137.698C125.317 137.347 123.621 136.894 122.276 136.338L126.487 122.388C128.68 123.06 130.654 123.426 132.409 123.484C134.193 123.543 135.728 123.134 137.015 122.256C138.331 121.379 139.399 119.887 140.218 117.782L141.314 114.93L117.143 45.6185H136.796L150.746 95.1018H151.448L165.53 45.6185H185.314L159.125 120.282C157.867 123.909 156.156 127.067 153.992 129.758C151.857 132.477 149.152 134.569 145.877 136.031C142.601 137.522 138.653 138.268 134.032 138.268ZM220.398 38.8189V23.158H294.184V38.8189H266.679V113H247.903V38.8189H220.398ZM326.657 114.316C319.843 114.316 313.95 112.868 308.978 109.973C304.036 107.049 300.219 102.983 297.529 97.7777C294.838 92.5428 293.493 86.4744 293.493 79.5725C293.493 72.612 294.838 66.529 297.529 61.3233C300.219 56.0884 304.036 52.0232 308.978 49.1279C313.95 46.2034 319.843 44.7411 326.657 44.7411C333.472 44.7411 339.35 46.2034 344.292 49.1279C349.264 52.0232 353.095 56.0884 355.786 61.3233C358.476 66.529 359.822 72.612 359.822 79.5725C359.822 86.4744 358.476 92.5428 355.786 97.7777C353.095 102.983 349.264 107.049 344.292 109.973C339.35 112.868 333.472 114.316 326.657 114.316ZM326.745 99.8396C329.845 99.8396 332.433 98.9622 334.51 97.2075C336.586 95.4235 338.151 92.9961 339.204 89.9253C340.286 86.8546 340.827 83.3597 340.827 79.4409C340.827 75.522 340.286 72.0271 339.204 68.9564C338.151 65.8856 336.586 63.4582 334.51 61.6742C332.433 59.8903 329.845 58.9983 326.745 58.9983C323.616 58.9983 320.984 59.8903 318.849 61.6742C316.743 63.4582 315.149 65.8856 314.067 68.9564C313.014 72.0271 312.488 75.522 312.488 79.4409C312.488 83.3597 313.014 86.8546 314.067 89.9253C315.149 92.9961 316.743 95.4235 318.849 97.2075C320.984 98.9622 323.616 99.8396 326.745 99.8396ZM396.803 114.097C391.685 114.097 387.049 112.781 382.896 110.149C378.773 107.487 375.497 103.583 373.07 98.4358C370.672 93.2593 369.473 86.9131 369.473 79.397C369.473 71.6762 370.716 65.2568 373.201 60.1389C375.687 54.9917 378.992 51.1459 383.116 48.6015C387.268 46.0279 391.816 44.7411 396.759 44.7411C400.531 44.7411 403.675 45.3845 406.19 46.6713C408.735 47.9289 410.782 49.5081 412.332 51.4091C413.911 53.2808 415.11 55.1233 415.929 56.9365H416.499V23.158H435.143V113H416.719V102.208H415.929C415.052 104.08 413.809 105.937 412.2 107.78C410.621 109.593 408.559 111.099 406.015 112.298C403.5 113.497 400.429 114.097 396.803 114.097ZM402.725 99.2254C405.737 99.2254 408.281 98.4065 410.358 96.7688C412.463 95.1018 414.072 92.7768 415.183 89.7937C416.324 86.8107 416.894 83.3159 416.894 79.3092C416.894 75.3026 416.338 71.8224 415.227 68.8686C414.116 65.9148 412.507 63.6337 410.402 62.0252C408.296 60.4167 405.737 59.6124 402.725 59.6124C399.654 59.6124 397.066 60.4459 394.96 62.1129C392.854 63.7799 391.26 66.0903 390.178 69.0441C389.096 71.9979 388.555 75.4196 388.555 79.3092C388.555 83.2281 389.096 86.6937 390.178 89.706C391.29 92.689 392.884 95.0287 394.96 96.7249C397.066 98.3919 399.654 99.2254 402.725 99.2254ZM480.953 114.316C474.138 114.316 468.245 112.868 463.274 109.973C458.331 107.049 454.515 102.983 451.824 97.7777C449.134 92.5428 447.788 86.4744 447.788 79.5725C447.788 72.612 449.134 66.529 451.824 61.3233C454.515 56.0884 458.331 52.0232 463.274 49.1279C468.245 46.2034 474.138 44.7411 480.953 44.7411C487.767 44.7411 493.645 46.2034 498.588 49.1279C503.559 52.0232 507.391 56.0884 510.081 61.3233C512.772 66.529 514.117 72.612 514.117 79.5725C514.117 86.4744 512.772 92.5428 510.081 97.7777C507.391 102.983 503.559 107.049 498.588 109.973C493.645 112.868 487.767 114.316 480.953 114.316ZM481.04 99.8396C484.14 99.8396 486.729 98.9622 488.805 97.2075C490.881 95.4235 492.446 92.9961 493.499 89.9253C494.581 86.8546 495.122 83.3597 495.122 79.4409C495.122 75.522 494.581 72.0271 493.499 68.9564C492.446 65.8856 490.881 63.4582 488.805 61.6742C486.729 59.8903 484.14 58.9983 481.04 58.9983C477.911 58.9983 475.279 59.8903 473.144 61.6742C471.038 63.4582 469.445 65.8856 468.362 68.9564C467.31 72.0271 466.783 75.522 466.783 79.4409C466.783 83.3597 467.31 86.8546 468.362 89.9253C469.445 92.9961 471.038 95.4235 473.144 97.2075C475.279 98.9622 477.911 99.8396 481.04 99.8396Z" fill="#1B1B1D"/>
<path d="M8.79957 167.158H35.6908L58.5022 222.783H59.555L82.3665 167.158H109.258V257H88.1132V201.814H87.3675L65.7843 256.43H52.2729L30.6898 201.507H29.944V257H8.79957V167.158ZM154.255 258.272C147.178 258.272 141.095 256.825 136.006 253.929C130.947 251.005 127.043 246.94 124.293 241.734C121.574 236.499 120.214 230.431 120.214 223.529C120.214 216.597 121.574 210.529 124.293 205.323C127.043 200.088 130.947 196.023 136.006 193.128C141.095 190.203 147.178 188.741 154.255 188.741C161.333 188.741 167.401 190.203 172.461 193.128C177.549 196.023 181.454 200.088 184.174 205.323C186.923 210.529 188.297 216.597 188.297 223.529C188.297 230.431 186.923 236.499 184.174 241.734C181.454 246.94 177.549 251.005 172.461 253.929C167.401 256.825 161.333 258.272 154.255 258.272ZM154.387 242.085C156.961 242.085 159.139 241.295 160.923 239.716C162.707 238.137 164.067 235.943 165.003 233.136C165.968 230.328 166.451 227.082 166.451 223.397C166.451 219.654 165.968 216.378 165.003 213.571C164.067 210.763 162.707 208.57 160.923 206.99C159.139 205.411 156.961 204.621 154.387 204.621C151.726 204.621 149.474 205.411 147.631 206.99C145.818 208.57 144.429 210.763 143.464 213.571C142.528 216.378 142.06 219.654 142.06 223.397C142.06 227.082 142.528 230.328 143.464 233.136C144.429 235.943 145.818 238.137 147.631 239.716C149.474 241.295 151.726 242.085 154.387 242.085ZM199.286 257V167.158H220.738V201.156H221.176C222.054 199.109 223.297 197.135 224.905 195.234C226.543 193.333 228.619 191.783 231.134 190.584C233.679 189.355 236.72 188.741 240.259 188.741C244.938 188.741 249.31 189.969 253.376 192.426C257.47 194.883 260.775 198.67 263.29 203.788C265.805 208.906 267.062 215.428 267.062 223.353C267.062 230.986 265.849 237.376 263.421 242.524C261.023 247.671 257.777 251.531 253.683 254.105C249.618 256.678 245.099 257.965 240.127 257.965C236.735 257.965 233.796 257.409 231.31 256.298C228.824 255.187 226.733 253.725 225.037 251.911C223.37 250.098 222.083 248.153 221.176 246.077H220.518V257H199.286ZM220.299 223.309C220.299 226.936 220.782 230.094 221.747 232.785C222.741 235.475 224.159 237.566 226.002 239.058C227.874 240.52 230.111 241.251 232.714 241.251C235.346 241.251 237.583 240.52 239.425 239.058C241.268 237.566 242.657 235.475 243.593 232.785C244.558 230.094 245.041 226.936 245.041 223.309C245.041 219.683 244.558 216.539 243.593 213.878C242.657 211.216 241.268 209.154 239.425 207.692C237.612 206.23 235.375 205.499 232.714 205.499C230.082 205.499 227.844 206.215 226.002 207.648C224.159 209.081 222.741 211.129 221.747 213.79C220.782 216.451 220.299 219.624 220.299 223.309ZM278.304 257V189.618H299.755V257H278.304ZM289.051 181.766C286.039 181.766 283.451 180.772 281.287 178.783C279.123 176.765 278.04 174.338 278.04 171.501C278.04 168.693 279.123 166.295 281.287 164.307C283.451 162.289 286.039 161.28 289.051 161.28C292.093 161.28 294.681 162.289 296.816 164.307C298.98 166.295 300.062 168.693 300.062 171.501C300.062 174.338 298.98 176.765 296.816 178.783C294.681 180.772 292.093 181.766 289.051 181.766ZM334.861 167.158V257H313.409V167.158H334.861ZM380.012 258.272C372.964 258.272 366.881 256.883 361.763 254.105C356.674 251.297 352.755 247.305 350.006 242.129C347.286 236.923 345.926 230.738 345.926 223.572C345.926 216.612 347.301 210.529 350.05 205.323C352.799 200.088 356.674 196.023 361.675 193.128C366.676 190.203 372.569 188.741 379.354 188.741C384.15 188.741 388.537 189.487 392.514 190.978C396.492 192.47 399.928 194.678 402.823 197.603C405.719 200.527 407.971 204.139 409.579 208.438C411.188 212.708 411.992 217.606 411.992 223.134V228.486H353.428V216.027H392.032C392.003 213.746 391.462 211.713 390.409 209.929C389.356 208.145 387.908 206.756 386.066 205.762C384.253 204.738 382.162 204.227 379.793 204.227C377.395 204.227 375.245 204.768 373.344 205.85C371.443 206.903 369.937 208.35 368.826 210.193C367.714 212.006 367.129 214.068 367.071 216.378V229.056C367.071 231.805 367.612 234.218 368.694 236.294C369.776 238.341 371.311 239.935 373.3 241.076C375.289 242.216 377.658 242.787 380.407 242.787C382.308 242.787 384.033 242.524 385.583 241.997C387.133 241.471 388.464 240.696 389.575 239.672C390.687 238.648 391.52 237.391 392.076 235.899L411.773 236.47C410.954 240.886 409.155 244.732 406.377 248.007C403.628 251.253 400.016 253.783 395.541 255.596C391.067 257.38 385.89 258.272 380.012 258.272ZM468.922 257H445.584L475.897 167.158H504.806L535.119 257H511.781L490.68 189.794H489.979L468.922 257ZM465.807 221.642H514.589V238.137H465.807V221.642ZM544.792 282.268V189.618H566.024V201.156H566.682C567.559 199.109 568.802 197.135 570.411 195.234C572.049 193.333 574.125 191.783 576.64 190.584C579.184 189.355 582.226 188.741 585.765 188.741C590.444 188.741 594.816 189.969 598.881 192.426C602.976 194.883 606.28 198.67 608.795 203.788C611.311 208.906 612.568 215.428 612.568 223.353C612.568 230.986 611.354 237.376 608.927 242.524C606.529 247.671 603.283 251.531 599.188 254.105C595.123 256.678 590.605 257.965 585.633 257.965C582.241 257.965 579.301 257.409 576.816 256.298C574.33 255.187 572.239 253.725 570.542 251.911C568.875 250.098 567.589 248.153 566.682 246.077H566.243V282.268H544.792ZM565.805 223.309C565.805 226.936 566.287 230.094 567.252 232.785C568.247 235.475 569.665 237.566 571.507 239.058C573.379 240.52 575.616 241.251 578.219 241.251C580.851 241.251 583.089 240.52 584.931 239.058C586.774 237.566 588.163 235.475 589.099 232.785C590.064 230.094 590.546 226.936 590.546 223.309C590.546 219.683 590.064 216.539 589.099 213.878C588.163 211.216 586.774 209.154 584.931 207.692C583.118 206.23 580.881 205.499 578.219 205.499C575.587 205.499 573.35 206.215 571.507 207.648C569.665 209.081 568.247 211.129 567.252 213.79C566.287 216.451 565.805 219.624 565.805 223.309ZM623.809 282.268V189.618H645.042V201.156H645.7C646.577 199.109 647.82 197.135 649.428 195.234C651.066 193.333 653.143 191.783 655.658 190.584C658.202 189.355 661.243 188.741 664.782 188.741C669.461 188.741 673.834 189.969 677.899 192.426C681.993 194.883 685.298 198.67 687.813 203.788C690.328 208.906 691.586 215.428 691.586 223.353C691.586 230.986 690.372 237.376 687.945 242.524C685.546 247.671 682.3 251.531 678.206 254.105C674.141 256.678 669.622 257.965 664.651 257.965C661.258 257.965 658.319 257.409 655.833 256.298C653.347 255.187 651.256 253.725 649.56 251.911C647.893 250.098 646.606 248.153 645.7 246.077H645.261V282.268H623.809ZM644.822 223.309C644.822 226.936 645.305 230.094 646.27 232.785C647.264 235.475 648.683 237.566 650.525 239.058C652.397 240.52 654.634 241.251 657.237 241.251C659.869 241.251 662.106 240.52 663.949 239.058C665.791 237.566 667.18 235.475 668.116 232.785C669.081 230.094 669.564 226.936 669.564 223.309C669.564 219.683 669.081 216.539 668.116 213.878C667.18 211.216 665.791 209.154 663.949 207.692C662.135 206.23 659.898 205.499 657.237 205.499C654.605 205.499 652.368 206.215 650.525 207.648C648.683 209.081 647.264 211.129 646.27 213.79C645.305 216.451 644.822 219.624 644.822 223.309Z" fill="#4A3780"/>
</svg>
