<svg width="390" height="222" viewBox="0 0 390 222" fill="none" xmlns="http://www.w3.org/2000/svg">
<g clip-path="url(#clip0_1_2370)">
<rect width="390" height="222" fill="#4A3780"/>
<g style="mix-blend-mode:lighten" opacity="0.7">
<circle cx="-20" cy="249" r="149" stroke="url(#paint0_linear_1_2370)" stroke-opacity="0.17" stroke-width="44"/>
</g>
<g style="mix-blend-mode:lighten" opacity="0.7">
<circle cx="399.5" cy="45.5" r="55" stroke="url(#paint1_linear_1_2370)" stroke-opacity="0.17" stroke-width="35"/>
</g>
<path d="M104.32 100.182H110.009L116.018 114.841H116.273L122.282 100.182H127.971V122H123.496V107.799H123.315L117.669 121.893H114.622L108.976 107.746H108.795V122H104.32V100.182ZM134.488 128.136C133.913 128.136 133.373 128.09 132.869 127.998C132.371 127.913 131.96 127.803 131.633 127.668L132.656 124.28C133.188 124.443 133.668 124.532 134.094 124.546C134.527 124.56 134.9 124.461 135.212 124.248C135.532 124.035 135.791 123.673 135.99 123.161L136.256 122.469L130.386 105.636H135.159L138.547 117.653H138.717L142.137 105.636H146.942L140.582 123.768C140.276 124.649 139.861 125.416 139.335 126.07C138.817 126.73 138.16 127.238 137.364 127.593C136.569 127.955 135.61 128.136 134.488 128.136ZM155.462 103.985V100.182H173.381V103.985H166.701V122H162.142V103.985H155.462ZM181.267 122.32C179.612 122.32 178.181 121.968 176.974 121.265C175.773 120.555 174.847 119.567 174.193 118.303C173.54 117.032 173.213 115.558 173.213 113.882C173.213 112.192 173.54 110.714 174.193 109.45C174.847 108.179 175.773 107.192 176.974 106.489C178.181 105.778 179.612 105.423 181.267 105.423C182.922 105.423 184.349 105.778 185.55 106.489C186.757 107.192 187.688 108.179 188.341 109.45C188.994 110.714 189.321 112.192 189.321 113.882C189.321 115.558 188.994 117.032 188.341 118.303C187.688 119.567 186.757 120.555 185.55 121.265C184.349 121.968 182.922 122.32 181.267 122.32ZM181.288 118.804C182.041 118.804 182.67 118.591 183.174 118.165C183.678 117.732 184.058 117.142 184.314 116.396C184.577 115.651 184.708 114.802 184.708 113.85C184.708 112.898 184.577 112.05 184.314 111.304C184.058 110.558 183.678 109.969 183.174 109.536C182.67 109.102 182.041 108.886 181.288 108.886C180.528 108.886 179.889 109.102 179.371 109.536C178.859 109.969 178.472 110.558 178.21 111.304C177.954 112.05 177.826 112.898 177.826 113.85C177.826 114.802 177.954 115.651 178.21 116.396C178.472 117.142 178.859 117.732 179.371 118.165C179.889 118.591 180.528 118.804 181.288 118.804ZM198.302 122.266C197.059 122.266 195.933 121.947 194.925 121.308C193.923 120.661 193.128 119.713 192.538 118.463C191.956 117.206 191.665 115.665 191.665 113.839C191.665 111.964 191.967 110.406 192.57 109.163C193.174 107.913 193.977 106.979 194.978 106.361C195.987 105.736 197.091 105.423 198.291 105.423C199.207 105.423 199.971 105.58 200.582 105.892C201.2 106.197 201.697 106.581 202.073 107.043C202.457 107.497 202.748 107.945 202.947 108.385H203.085V100.182H207.613V122H203.138V119.379H202.947C202.734 119.834 202.432 120.285 202.041 120.732C201.658 121.173 201.157 121.538 200.539 121.83C199.928 122.121 199.183 122.266 198.302 122.266ZM199.74 118.655C200.472 118.655 201.089 118.456 201.594 118.058C202.105 117.653 202.496 117.089 202.766 116.364C203.043 115.64 203.181 114.791 203.181 113.818C203.181 112.845 203.046 112 202.776 111.283C202.506 110.565 202.116 110.011 201.604 109.621C201.093 109.23 200.472 109.035 199.74 109.035C198.994 109.035 198.366 109.237 197.854 109.642C197.343 110.047 196.956 110.608 196.693 111.325C196.43 112.043 196.299 112.874 196.299 113.818C196.299 114.77 196.43 115.612 196.693 116.343C196.963 117.067 197.35 117.636 197.854 118.048C198.366 118.452 198.994 118.655 199.74 118.655ZM218.738 122.32C217.083 122.32 215.652 121.968 214.444 121.265C213.244 120.555 212.317 119.567 211.664 118.303C211.01 117.032 210.684 115.558 210.684 113.882C210.684 112.192 211.01 110.714 211.664 109.45C212.317 108.179 213.244 107.192 214.444 106.489C215.652 105.778 217.083 105.423 218.738 105.423C220.393 105.423 221.82 105.778 223.02 106.489C224.228 107.192 225.158 108.179 225.812 109.45C226.465 110.714 226.792 112.192 226.792 113.882C226.792 115.558 226.465 117.032 225.812 118.303C225.158 119.567 224.228 120.555 223.02 121.265C221.82 121.968 220.393 122.32 218.738 122.32ZM218.759 118.804C219.512 118.804 220.14 118.591 220.645 118.165C221.149 117.732 221.529 117.142 221.785 116.396C222.047 115.651 222.179 114.802 222.179 113.85C222.179 112.898 222.047 112.05 221.785 111.304C221.529 110.558 221.149 109.969 220.645 109.536C220.14 109.102 219.512 108.886 218.759 108.886C217.999 108.886 217.36 109.102 216.841 109.536C216.33 109.969 215.943 110.558 215.68 111.304C215.425 112.05 215.297 112.898 215.297 113.85C215.297 114.802 215.425 115.651 215.68 116.396C215.943 117.142 216.33 117.732 216.841 118.165C217.36 118.591 217.999 118.804 218.759 118.804ZM236.771 122V100.182H241.384V118.197H250.738V122H236.771ZM253.708 122V105.636H258.246V122H253.708ZM255.987 103.527C255.313 103.527 254.734 103.303 254.251 102.856C253.775 102.401 253.537 101.858 253.537 101.226C253.537 100.601 253.775 100.065 254.251 99.6172C254.734 99.1626 255.313 98.9354 255.987 98.9354C256.662 98.9354 257.237 99.1626 257.713 99.6172C258.196 100.065 258.438 100.601 258.438 101.226C258.438 101.858 258.196 102.401 257.713 102.856C257.237 103.303 256.662 103.527 255.987 103.527ZM275.496 110.303L271.342 110.558C271.271 110.203 271.118 109.884 270.884 109.599C270.649 109.308 270.34 109.077 269.957 108.907C269.58 108.729 269.129 108.641 268.604 108.641C267.901 108.641 267.308 108.79 266.825 109.088C266.342 109.379 266.1 109.77 266.1 110.26C266.1 110.651 266.256 110.981 266.569 111.251C266.881 111.521 267.418 111.737 268.178 111.901L271.139 112.497C272.73 112.824 273.916 113.349 274.697 114.074C275.479 114.798 275.869 115.75 275.869 116.929C275.869 118.001 275.553 118.942 274.921 119.752C274.296 120.562 273.437 121.194 272.343 121.648C271.256 122.096 270.003 122.32 268.582 122.32C266.416 122.32 264.69 121.869 263.405 120.967C262.126 120.058 261.377 118.822 261.157 117.259L265.621 117.025C265.756 117.685 266.082 118.19 266.601 118.538C267.119 118.879 267.783 119.049 268.593 119.049C269.388 119.049 270.028 118.896 270.511 118.591C271.001 118.278 271.249 117.877 271.256 117.387C271.249 116.975 271.075 116.638 270.734 116.375C270.393 116.105 269.868 115.899 269.158 115.757L266.324 115.192C264.726 114.873 263.536 114.319 262.755 113.531C261.981 112.742 261.594 111.737 261.594 110.516C261.594 109.464 261.878 108.559 262.446 107.799C263.021 107.039 263.827 106.453 264.864 106.041C265.908 105.629 267.13 105.423 268.529 105.423C270.596 105.423 272.222 105.86 273.408 106.734C274.602 107.607 275.298 108.797 275.496 110.303ZM287.431 105.636V109.045H277.577V105.636H287.431ZM279.814 101.716H284.352V116.972C284.352 117.391 284.416 117.717 284.544 117.952C284.672 118.179 284.849 118.339 285.077 118.431C285.311 118.523 285.581 118.57 285.886 118.57C286.099 118.57 286.312 118.552 286.525 118.516C286.738 118.474 286.902 118.442 287.015 118.42L287.729 121.798C287.502 121.869 287.182 121.95 286.77 122.043C286.358 122.142 285.858 122.202 285.268 122.224C284.175 122.266 283.216 122.121 282.392 121.787C281.575 121.453 280.939 120.935 280.485 120.232C280.03 119.528 279.807 118.641 279.814 117.568V101.716Z" fill="white"/>
<path d="M138.952 45.1818C138.952 46.4356 138.717 47.5095 138.247 48.4034C137.781 49.2936 137.145 49.9754 136.338 50.4489C135.535 50.9223 134.624 51.1591 133.605 51.1591C132.586 51.1591 131.673 50.9223 130.866 50.4489C130.063 49.9716 129.427 49.2879 128.957 48.3977C128.491 47.5038 128.259 46.4318 128.259 45.1818C128.259 43.928 128.491 42.8561 128.957 41.9659C129.427 41.072 130.063 40.3883 130.866 39.9148C131.673 39.4413 132.586 39.2045 133.605 39.2045C134.624 39.2045 135.535 39.4413 136.338 39.9148C137.145 40.3883 137.781 41.072 138.247 41.9659C138.717 42.8561 138.952 43.928 138.952 45.1818ZM136.832 45.1818C136.832 44.2992 136.694 43.5549 136.418 42.9489C136.145 42.339 135.766 41.8788 135.281 41.5682C134.796 41.2538 134.238 41.0966 133.605 41.0966C132.973 41.0966 132.414 41.2538 131.929 41.5682C131.444 41.8788 131.063 42.339 130.787 42.9489C130.514 43.5549 130.378 44.2992 130.378 45.1818C130.378 46.0644 130.514 46.8106 130.787 47.4205C131.063 48.0265 131.444 48.4867 131.929 48.8011C132.414 49.1117 132.973 49.267 133.605 49.267C134.238 49.267 134.796 49.1117 135.281 48.8011C135.766 48.4867 136.145 48.0265 136.418 47.4205C136.694 46.8106 136.832 46.0644 136.832 45.1818ZM144.661 51.1705C143.789 51.1705 143.041 50.9792 142.416 50.5966C141.795 50.214 141.316 49.6856 140.979 49.0114C140.645 48.3333 140.479 47.553 140.479 46.6705C140.479 45.7841 140.649 45.0019 140.99 44.3239C141.331 43.642 141.812 43.1117 142.433 42.733C143.058 42.3504 143.797 42.1591 144.649 42.1591C145.357 42.1591 145.984 42.2898 146.53 42.5511C147.079 42.8087 147.517 43.1742 147.842 43.6477C148.168 44.1174 148.354 44.6667 148.399 45.2955H146.433C146.354 44.875 146.164 44.5246 145.865 44.2443C145.57 43.9602 145.174 43.8182 144.678 43.8182C144.257 43.8182 143.888 43.9318 143.57 44.1591C143.251 44.3826 143.003 44.7045 142.825 45.125C142.651 45.5455 142.564 46.0492 142.564 46.6364C142.564 47.2311 142.651 47.7424 142.825 48.1705C143 48.5947 143.244 48.9223 143.558 49.1534C143.876 49.3807 144.25 49.4943 144.678 49.4943C144.981 49.4943 145.251 49.4375 145.49 49.3239C145.732 49.2064 145.935 49.0379 146.098 48.8182C146.261 48.5985 146.373 48.3314 146.433 48.017H148.399C148.35 48.6345 148.168 49.1818 147.854 49.6591C147.539 50.1326 147.111 50.5038 146.57 50.7727C146.028 51.0379 145.392 51.1705 144.661 51.1705ZM154.446 42.2727V43.8636H149.429V42.2727H154.446ZM150.668 40.1818H152.724V48.375C152.724 48.6515 152.766 48.8636 152.849 49.0114C152.937 49.1553 153.05 49.2538 153.19 49.3068C153.33 49.3598 153.486 49.3864 153.656 49.3864C153.785 49.3864 153.902 49.3769 154.009 49.358C154.118 49.339 154.202 49.322 154.259 49.3068L154.605 50.9148C154.495 50.9527 154.338 50.9943 154.134 51.0398C153.933 51.0852 153.687 51.1117 153.395 51.1193C152.88 51.1345 152.416 51.0568 152.003 50.8864C151.59 50.7121 151.262 50.4432 151.02 50.0795C150.781 49.7159 150.664 49.2614 150.668 48.7159V40.1818ZM159.879 51.1705C159.027 51.1705 158.288 50.983 157.663 50.608C157.038 50.233 156.554 49.7083 156.209 49.0341C155.868 48.3598 155.697 47.572 155.697 46.6705C155.697 45.7689 155.868 44.9792 156.209 44.3011C156.554 43.6231 157.038 43.0966 157.663 42.7216C158.288 42.3466 159.027 42.1591 159.879 42.1591C160.732 42.1591 161.47 42.3466 162.095 42.7216C162.72 43.0966 163.203 43.6231 163.544 44.3011C163.889 44.9792 164.061 45.7689 164.061 46.6705C164.061 47.572 163.889 48.3598 163.544 49.0341C163.203 49.7083 162.72 50.233 162.095 50.608C161.47 50.983 160.732 51.1705 159.879 51.1705ZM159.891 49.5227C160.353 49.5227 160.739 49.3958 161.05 49.142C161.36 48.8845 161.591 48.5398 161.743 48.108C161.898 47.6761 161.976 47.1951 161.976 46.6648C161.976 46.1307 161.898 45.6477 161.743 45.2159C161.591 44.7803 161.36 44.4337 161.05 44.1761C160.739 43.9186 160.353 43.7898 159.891 43.7898C159.417 43.7898 159.023 43.9186 158.709 44.1761C158.398 44.4337 158.165 44.7803 158.01 45.2159C157.858 45.6477 157.783 46.1307 157.783 46.6648C157.783 47.1951 157.858 47.6761 158.01 48.108C158.165 48.5398 158.398 48.8845 158.709 49.142C159.023 49.3958 159.417 49.5227 159.891 49.5227ZM165.898 51V39.3636H167.955V43.7159H168.04C168.146 43.5038 168.295 43.2784 168.489 43.0398C168.682 42.7973 168.943 42.5909 169.273 42.4205C169.602 42.2462 170.023 42.1591 170.534 42.1591C171.208 42.1591 171.816 42.3314 172.358 42.6761C172.903 43.017 173.335 43.5227 173.653 44.1932C173.975 44.8598 174.136 45.678 174.136 46.6477C174.136 47.6061 173.979 48.4205 173.665 49.0909C173.35 49.7614 172.922 50.2727 172.381 50.625C171.839 50.9773 171.225 51.1534 170.54 51.1534C170.04 51.1534 169.625 51.0701 169.295 50.9034C168.966 50.7367 168.701 50.536 168.5 50.3011C168.303 50.0625 168.15 49.8371 168.04 49.625H167.92V51H165.898ZM167.915 46.6364C167.915 47.2008 167.994 47.6951 168.153 48.1193C168.316 48.5436 168.549 48.875 168.852 49.1136C169.159 49.3485 169.53 49.4659 169.966 49.4659C170.42 49.4659 170.801 49.3447 171.108 49.1023C171.415 48.8561 171.646 48.5208 171.801 48.0966C171.96 47.6686 172.04 47.1818 172.04 46.6364C172.04 46.0947 171.962 45.6136 171.807 45.1932C171.652 44.7727 171.42 44.4432 171.114 44.2045C170.807 43.9659 170.424 43.8466 169.966 43.8466C169.527 43.8466 169.153 43.9621 168.847 44.1932C168.54 44.4242 168.307 44.7481 168.148 45.1648C167.992 45.5814 167.915 46.072 167.915 46.6364ZM179.749 51.1705C178.874 51.1705 178.118 50.9886 177.482 50.625C176.849 50.2576 176.362 49.7386 176.021 49.0682C175.68 48.3939 175.51 47.6004 175.51 46.6875C175.51 45.7898 175.68 45.0019 176.021 44.3239C176.366 43.642 176.847 43.1117 177.464 42.733C178.082 42.3504 178.807 42.1591 179.641 42.1591C180.179 42.1591 180.686 42.2462 181.163 42.4205C181.644 42.5909 182.069 42.8561 182.436 43.2159C182.807 43.5758 183.099 44.0341 183.311 44.5909C183.523 45.1439 183.629 45.803 183.629 46.5682V47.1989H176.476V45.8125H181.658C181.654 45.4186 181.569 45.0682 181.402 44.7614C181.235 44.4508 181.002 44.2064 180.703 44.0284C180.408 43.8504 180.063 43.7614 179.669 43.7614C179.249 43.7614 178.879 43.8636 178.561 44.0682C178.243 44.2689 177.995 44.5341 177.817 44.8636C177.643 45.1894 177.554 45.5473 177.55 45.9375V47.1477C177.55 47.6553 177.643 48.0909 177.828 48.4545C178.014 48.8144 178.273 49.0909 178.607 49.2841C178.94 49.4735 179.33 49.5682 179.777 49.5682C180.076 49.5682 180.347 49.5265 180.589 49.4432C180.832 49.3561 181.042 49.2292 181.22 49.0625C181.398 48.8958 181.533 48.6894 181.624 48.4432L183.544 48.6591C183.423 49.1667 183.192 49.6098 182.851 49.9886C182.514 50.3636 182.082 50.6553 181.555 50.8636C181.029 51.0682 180.427 51.1705 179.749 51.1705ZM185.369 51V42.2727H187.364V43.7273H187.455C187.614 43.2235 187.886 42.8352 188.273 42.5625C188.663 42.286 189.108 42.1477 189.608 42.1477C189.722 42.1477 189.848 42.1534 189.989 42.1648C190.133 42.1723 190.252 42.1856 190.347 42.2045V44.0966C190.259 44.0663 190.121 44.0398 189.932 44.017C189.746 43.9905 189.566 43.9773 189.392 43.9773C189.017 43.9773 188.68 44.0587 188.381 44.2216C188.085 44.3807 187.852 44.6023 187.682 44.8864C187.511 45.1705 187.426 45.4981 187.426 45.8693V51H185.369ZM195.659 51V49.4773L199.699 45.517C200.085 45.1269 200.407 44.7803 200.665 44.4773C200.922 44.1742 201.116 43.8807 201.244 43.5966C201.373 43.3125 201.438 43.0095 201.438 42.6875C201.438 42.3201 201.354 42.0057 201.188 41.7443C201.021 41.4792 200.792 41.2746 200.5 41.1307C200.208 40.9867 199.877 40.9148 199.506 40.9148C199.123 40.9148 198.788 40.9943 198.5 41.1534C198.212 41.3087 197.989 41.5303 197.83 41.8182C197.674 42.1061 197.597 42.4489 197.597 42.8466H195.591C195.591 42.108 195.759 41.4659 196.097 40.9205C196.434 40.375 196.898 39.9527 197.489 39.6534C198.083 39.3542 198.765 39.2045 199.534 39.2045C200.314 39.2045 201 39.3504 201.591 39.642C202.182 39.9337 202.64 40.3333 202.966 40.8409C203.295 41.3485 203.46 41.928 203.46 42.5795C203.46 43.0152 203.377 43.4432 203.21 43.8636C203.044 44.2841 202.75 44.75 202.33 45.2614C201.913 45.7727 201.328 46.392 200.574 47.1193L198.568 49.1591V49.2386H203.636V51H195.659ZM209.898 51.2216C208.962 51.2216 208.159 50.9848 207.489 50.5114C206.822 50.0341 206.309 49.3466 205.949 48.4489C205.593 47.5473 205.415 46.4621 205.415 45.1932C205.419 43.9242 205.598 42.8447 205.955 41.9545C206.314 41.0606 206.828 40.3788 207.494 39.9091C208.165 39.4394 208.966 39.2045 209.898 39.2045C210.83 39.2045 211.631 39.4394 212.301 39.9091C212.972 40.3788 213.485 41.0606 213.841 41.9545C214.201 42.8485 214.381 43.928 214.381 45.1932C214.381 46.4659 214.201 47.553 213.841 48.4545C213.485 49.3523 212.972 50.0379 212.301 50.5114C211.634 50.9848 210.833 51.2216 209.898 51.2216ZM209.898 49.4432C210.625 49.4432 211.199 49.0852 211.619 48.3693C212.044 47.6496 212.256 46.5909 212.256 45.1932C212.256 44.2689 212.159 43.4924 211.966 42.8636C211.773 42.2348 211.5 41.7614 211.148 41.4432C210.795 41.1212 210.379 40.9602 209.898 40.9602C209.174 40.9602 208.602 41.3201 208.182 42.0398C207.761 42.7557 207.549 43.8068 207.545 45.1932C207.542 46.1212 207.634 46.9015 207.824 47.5341C208.017 48.1667 208.29 48.6439 208.642 48.9659C208.994 49.2841 209.413 49.4432 209.898 49.4432ZM218.253 49.4091L218.179 50.0341C218.126 50.5114 218.031 50.9962 217.895 51.4886C217.762 51.9848 217.622 52.4413 217.474 52.858C217.327 53.2746 217.207 53.6023 217.116 53.8409H215.73C215.783 53.6098 215.855 53.2955 215.946 52.8977C216.041 52.5 216.132 52.053 216.219 51.5568C216.306 51.0606 216.365 50.5568 216.395 50.0455L216.435 49.4091H218.253ZM224.143 51V49.4773L228.183 45.517C228.57 45.1269 228.892 44.7803 229.149 44.4773C229.407 44.1742 229.6 43.8807 229.729 43.5966C229.857 43.3125 229.922 43.0095 229.922 42.6875C229.922 42.3201 229.839 42.0057 229.672 41.7443C229.505 41.4792 229.276 41.2746 228.984 41.1307C228.693 40.9867 228.361 40.9148 227.99 40.9148C227.607 40.9148 227.272 40.9943 226.984 41.1534C226.696 41.3087 226.473 41.5303 226.314 41.8182C226.159 42.1061 226.081 42.4489 226.081 42.8466H224.075C224.075 42.108 224.244 41.4659 224.581 40.9205C224.918 40.375 225.382 39.9527 225.973 39.6534C226.568 39.3542 227.25 39.2045 228.018 39.2045C228.799 39.2045 229.484 39.3504 230.075 39.642C230.666 39.9337 231.125 40.3333 231.45 40.8409C231.78 41.3485 231.945 41.928 231.945 42.5795C231.945 43.0152 231.861 43.4432 231.695 43.8636C231.528 44.2841 231.234 44.75 230.814 45.2614C230.397 45.7727 229.812 46.392 229.058 47.1193L227.053 49.1591V49.2386H232.121V51H224.143ZM238.382 51.2216C237.446 51.2216 236.643 50.9848 235.973 50.5114C235.306 50.0341 234.793 49.3466 234.433 48.4489C234.077 47.5473 233.899 46.4621 233.899 45.1932C233.903 43.9242 234.083 42.8447 234.439 41.9545C234.799 41.0606 235.312 40.3788 235.979 39.9091C236.649 39.4394 237.45 39.2045 238.382 39.2045C239.314 39.2045 240.115 39.4394 240.786 39.9091C241.456 40.3788 241.969 41.0606 242.325 41.9545C242.685 42.8485 242.865 43.928 242.865 45.1932C242.865 46.4659 242.685 47.553 242.325 48.4545C241.969 49.3523 241.456 50.0379 240.786 50.5114C240.119 50.9848 239.318 51.2216 238.382 51.2216ZM238.382 49.4432C239.109 49.4432 239.683 49.0852 240.104 48.3693C240.528 47.6496 240.74 46.5909 240.74 45.1932C240.74 44.2689 240.643 43.4924 240.45 42.8636C240.257 42.2348 239.984 41.7614 239.632 41.4432C239.28 41.1212 238.863 40.9602 238.382 40.9602C237.659 40.9602 237.087 41.3201 236.666 42.0398C236.246 42.7557 236.034 43.8068 236.03 45.1932C236.026 46.1212 236.119 46.9015 236.308 47.5341C236.501 48.1667 236.774 48.6439 237.126 48.9659C237.479 49.2841 237.897 49.4432 238.382 49.4432ZM244.753 51V49.4773L248.793 45.517C249.179 45.1269 249.501 44.7803 249.759 44.4773C250.016 44.1742 250.209 43.8807 250.338 43.5966C250.467 43.3125 250.531 43.0095 250.531 42.6875C250.531 42.3201 250.448 42.0057 250.281 41.7443C250.115 41.4792 249.885 41.2746 249.594 41.1307C249.302 40.9867 248.971 40.9148 248.599 40.9148C248.217 40.9148 247.882 40.9943 247.594 41.1534C247.306 41.3087 247.082 41.5303 246.923 41.8182C246.768 42.1061 246.69 42.4489 246.69 42.8466H244.685C244.685 42.108 244.853 41.4659 245.19 40.9205C245.527 40.375 245.991 39.9527 246.582 39.6534C247.177 39.3542 247.859 39.2045 248.628 39.2045C249.408 39.2045 250.094 39.3504 250.685 39.642C251.276 39.9337 251.734 40.3333 252.06 40.8409C252.389 41.3485 252.554 41.928 252.554 42.5795C252.554 43.0152 252.471 43.4432 252.304 43.8636C252.137 44.2841 251.844 44.75 251.423 45.2614C251.007 45.7727 250.421 46.392 249.668 47.1193L247.662 49.1591V49.2386H252.73V51H244.753ZM254.69 51V49.4773L258.73 45.517C259.116 45.1269 259.438 44.7803 259.696 44.4773C259.954 44.1742 260.147 43.8807 260.276 43.5966C260.404 43.3125 260.469 43.0095 260.469 42.6875C260.469 42.3201 260.385 42.0057 260.219 41.7443C260.052 41.4792 259.823 41.2746 259.531 41.1307C259.24 40.9867 258.908 40.9148 258.537 40.9148C258.154 40.9148 257.819 40.9943 257.531 41.1534C257.243 41.3087 257.02 41.5303 256.861 41.8182C256.705 42.1061 256.628 42.4489 256.628 42.8466H254.622C254.622 42.108 254.791 41.4659 255.128 40.9205C255.465 40.375 255.929 39.9527 256.52 39.6534C257.115 39.3542 257.796 39.2045 258.565 39.2045C259.346 39.2045 260.031 39.3504 260.622 39.642C261.213 39.9337 261.671 40.3333 261.997 40.8409C262.327 41.3485 262.491 41.928 262.491 42.5795C262.491 43.0152 262.408 43.4432 262.241 43.8636C262.075 44.2841 261.781 44.75 261.361 45.2614C260.944 45.7727 260.359 46.392 259.605 47.1193L257.599 49.1591V49.2386H262.668V51H254.69Z" fill="white"/>
<rect x="16" y="24" width="48" height="48" rx="24" fill="white"/>
<g clip-path="url(#clip1_1_2370)">
<path d="M37.828 47L42.778 51.95L41.364 53.364L35 47L41.364 40.636L42.778 42.05L37.828 47Z" fill="#4A3780"/>
</g>
</g>
<defs>
<linearGradient id="paint0_linear_1_2370" x1="-20" y1="78" x2="-26" y2="280" gradientUnits="userSpaceOnUse">
<stop offset="0.0001" stop-color="white" stop-opacity="0.97"/>
<stop offset="0.0002" stop-color="white" stop-opacity="0.77"/>
<stop offset="1" stop-color="white" stop-opacity="0"/>
<stop offset="1" stop-color="white" stop-opacity="0"/>
</linearGradient>
<linearGradient id="paint1_linear_1_2370" x1="399.5" y1="-27" x2="399.5" y2="118" gradientUnits="userSpaceOnUse">
<stop stop-color="white"/>
<stop offset="1" stop-color="white" stop-opacity="0"/>
<stop offset="1" stop-color="white" stop-opacity="0"/>
</linearGradient>
<clipPath id="clip0_1_2370">
<rect width="390" height="222" fill="white"/>
</clipPath>
<clipPath id="clip1_1_2370">
<rect width="24" height="24" fill="white" transform="translate(27 35)"/>
</clipPath>
</defs>
</svg>
